<svg width="20" height="15" viewBox="0 0 20 15" fill="#ffffff" xmlns="http://www.w3.org/2000/svg">
<path fill-rule="evenodd" clip-rule="evenodd" d="M16.3766 7.60547C16.6129 6.815 17.4614 6.36221 18.271 6.59381C19.0803 6.82534 19.5453 7.65374 19.308 8.44449C19.0722 9.23457 18.2242 9.68701 17.4146 9.45544C17.3475 9.43619 17.2822 9.41272 17.2199 9.38548L13.3981 14.4313L2.69482 11.3619L2.25748 5.1081C2.19808 5.0979 2.13852 5.08447 2.07891 5.06738C1.26955 4.83529 0.804775 4.00686 1.04133 3.21763C1.27774 2.427 2.12549 1.9741 2.93525 2.20575C3.74456 2.43736 4.20883 3.26565 3.9724 4.05601C3.85827 4.43586 3.6051 4.737 3.28102 4.92192C3.75022 6.77815 4.31794 8.29653 5.02981 8.50066C5.95646 8.76537 6.76312 6.39068 7.27995 4.07992C6.567 3.73628 6.18694 2.93378 6.41748 2.16361C6.67487 1.3027 7.59989 0.809424 8.48262 1.062C9.36443 1.3143 9.87116 2.21721 9.61374 3.07858C9.42856 3.69758 8.89948 4.12672 8.28892 4.22639C8.06736 6.64351 8.05261 8.84839 9.1588 9.16512C9.17084 9.16812 9.18449 9.17094 9.19753 9.17304C10.2958 9.45498 11.4904 7.59679 12.6287 5.45605C12.1838 5.04933 11.9819 4.41924 12.1648 3.80855C12.4224 2.94712 13.3472 2.4538 14.2295 2.70623C15.1124 2.95887 15.619 3.86163 15.3611 4.72323C15.1278 5.50217 14.3506 5.98023 13.5524 5.87877C12.7124 8.09762 12.0828 10.5239 13.0095 10.7894C13.7246 10.9939 15.0471 10.0054 16.4724 8.68252C16.3102 8.35916 16.2651 7.97769 16.3766 7.60547Z"/>
</svg>
